<svg xmlns="http://www.w3.org/2000/svg" xmlns:xlink="http://www.w3.org/1999/xlink" version="1.1" x="0px" y="0px" viewBox="0 0 48 60" enable-background="new 0 0 48 48" xml:space="preserve"><g><path fill="#000000" d="M20,30.8c-0.4,0-0.8-0.1-1.2-0.2L2.6,23.3c-0.4-0.2-1-0.6-1.3-1.6c-0.6-1.7-0.3-4.4,0.9-6.6   c2.9-5.5,7.4-10,12.9-13C16.6,1.4,18.2,1,19.8,1c1.8,0,3.1,0.6,3.5,1.7l7.2,16.1c0.7,1.7-0.1,3.6-2,4.6c-2.2,1.2-4,3-5.2,5.2   C22.6,29.9,21.3,30.8,20,30.8z M19.8,3c-1.2,0-2.5,0.4-3.7,1C10.9,6.7,6.7,10.9,4,16.1C2.9,18,2.8,20,3.1,21   c0.1,0.3,0.2,0.5,0.3,0.5l16.2,7.2c0.1,0,0.3,0.1,0.4,0.1c0.6,0,1.2-0.5,1.6-1.2c1.3-2.6,3.4-4.6,6-6c0.8-0.4,1.4-1.2,1.1-2   L21.4,3.5C21.4,3.3,20.9,3,19.8,3z"/><path fill="#000000" d="M16.8,37L16.8,37l-0.2,0L3.5,35.7c-0.3,0-0.9-0.2-1.5-0.8c-1.1-1.2-1.7-3.6-1.6-6c0.1-2.4,0.6-4.8,1.2-7.1   l0.3-1.1l18.4,8.3l-0.2,0.8c-0.3,1.1-0.5,2.2-0.6,3.4C19.5,35.5,18.4,37,16.8,37z M3.4,23.6c-0.4,1.8-0.7,3.6-0.8,5.5   c-0.2,2.6,0.8,4.5,1.2,4.7L16.8,35v0c0.3,0,0.8-0.7,0.8-1.8c0.1-1,0.2-2,0.4-3L3.4,23.6z"/><path fill="#000000" d="M13.1,47.5c-0.4,0-1-0.1-1.6-0.5c-2.7-1.5-5.8-6.4-6.4-11.9l2-0.2c0.4,4.6,2.9,8.7,5.1,10.2   c0.6,0.4,0.9,0.4,1,0.4c1-0.4,0.6-4.8,0.4-7.7c-0.1-0.7-0.1-1.3-0.2-2l2-0.2c0.1,0.7,0.1,1.3,0.2,2c0.4,4.8,0.8,8.7-1.5,9.7   C13.7,47.4,13.4,47.5,13.1,47.5z"/><path fill="#000000" d="M29.1,20.5L20.8,2.1l1.1-0.3c2.3-0.7,4.6-1.1,7.1-1.2c0.2,0,0.5,0,0.7,0c2.8,0,6,1.2,6.1,3.1L37,16.7   c0.1,0.9-0.4,1.7-1.2,2.3c-0.6,0.4-1.5,0.7-2.5,0.8c-1.2,0.1-2.3,0.3-3.4,0.6L29.1,20.5z M23.6,3.4l6.6,14.8c1-0.2,2-0.4,3-0.4   c0.6,0,1.1-0.2,1.5-0.4c0.2-0.1,0.3-0.3,0.3-0.4L33.8,3.7c-0.2-0.3-1.8-1.2-4.1-1.2c-0.2,0-0.4,0-0.6,0C27.2,2.6,25.4,2.9,23.6,3.4   z"/><path fill="#000000" d="M42.7,15.8c-1.4,0-3.1-0.2-5-0.3c-0.7-0.1-1.3-0.1-2-0.2l0.2-2c0.7,0.1,1.3,0.1,2,0.2   c2.9,0.3,7.2,0.7,7.6-0.3c0-0.1,0-0.4-0.4-1c-1.5-2.1-5.6-4.6-10.2-5.1l0.2-2c5.5,0.5,10.4,3.7,11.9,6.4c0.7,1.2,0.5,2,0.3,2.5   C46.7,15.4,45,15.8,42.7,15.8z"/></g><text x="0" y="63" fill="#000000" font-size="5px" font-weight="bold" font-family="'Helvetica Neue', Helvetica, Arial-Unicode, Arial, Sans-serif">Created by Creative Stall</text><text x="0" y="68" fill="#000000" font-size="5px" font-weight="bold" font-family="'Helvetica Neue', Helvetica, Arial-Unicode, Arial, Sans-serif">from the Noun Project</text></svg>