<?xml version="1.0" encoding="UTF-8" standalone="no"?>
<!DOCTYPE svg PUBLIC "-//W3C//DTD SVG 1.1//EN" "http://www.w3.org/Graphics/SVG/1.1/DTD/svg11.dtd">
<svg width="100%" height="100%" viewBox="0 0 48 60" version="1.1" xmlns="http://www.w3.org/2000/svg" xmlns:xlink="http://www.w3.org/1999/xlink" xml:space="preserve" xmlns:serif="http://www.serif.com/" style="fill-rule:evenodd;clip-rule:evenodd;stroke-linejoin:round;stroke-miterlimit:2;">
    <g transform="matrix(1,0,0,1,0.061113,5.95)">
        <g transform="matrix(0,-1,1,0,-0.111113,47.988887)">
            <path d="M20,30.8C19.6,30.8 19.2,30.7 18.8,30.6L2.6,23.3C2.2,23.1 1.6,22.7 1.3,21.7C0.7,20 1,17.3 2.2,15.1C5.1,9.6 9.6,5.1 15.1,2.1C16.6,1.4 18.2,1 19.8,1C21.6,1 22.9,1.6 23.3,2.7L30.5,18.8C31.2,20.5 30.4,22.4 28.5,23.4C26.3,24.6 24.5,26.4 23.3,28.6C22.6,29.9 21.3,30.8 20,30.8ZM19.8,3C18.6,3 17.3,3.4 16.1,4C10.9,6.7 6.7,10.9 4,16.1C2.9,18 2.8,20 3.1,21C3.2,21.3 3.3,21.5 3.4,21.5L19.6,28.7C19.7,28.7 19.9,28.8 20,28.8C20.6,28.8 21.2,28.3 21.6,27.6C22.9,25 25,23 27.6,21.6C28.4,21.2 29,20.4 28.7,19.6L21.4,3.5C21.4,3.3 20.9,3 19.8,3Z" style="fill-rule:nonzero;"/>
        </g>
        <g transform="matrix(0,-1,1,0,-0.111113,47.988887)">
            <path d="M16.8,37L16.6,37L3.5,35.7C3.2,35.7 2.6,35.5 2,34.9C0.9,33.7 0.3,31.3 0.4,28.9C0.5,26.5 1,24.1 1.6,21.8L1.9,20.7L20.3,29L20.1,29.8C19.8,30.9 19.6,32 19.5,33.2C19.5,35.5 18.4,37 16.8,37ZM3.4,23.6C3,25.4 2.7,27.2 2.6,29.1C2.4,31.7 3.4,33.6 3.8,33.8L16.8,35C17.1,35 17.6,34.3 17.6,33.2C17.7,32.2 17.8,31.2 18,30.2L3.4,23.6Z" style="fill-rule:nonzero;"/>
        </g>
        <g transform="matrix(0,-1,1,0,-0.111113,47.988887)">
            <path d="M13.1,47.5C12.7,47.5 12.1,47.4 11.5,47C8.8,45.5 5.7,40.6 5.1,35.1L7.1,34.9C7.5,39.5 10,43.6 12.2,45.1C12.8,45.5 13.1,45.5 13.2,45.5C14.2,45.1 13.8,40.7 13.6,37.8C13.5,37.1 13.5,36.5 13.4,35.8L15.4,35.6C15.5,36.3 15.5,36.9 15.6,37.6C16,42.4 16.4,46.3 14.1,47.3C13.7,47.4 13.4,47.5 13.1,47.5Z" style="fill-rule:nonzero;"/>
        </g>
        <g transform="matrix(0,-1,1,0,-0.111113,47.988887)">
            <path d="M29.1,20.5L20.8,2.1L21.9,1.8C24.2,1.1 26.5,0.7 29,0.6L29.7,0.6C32.5,0.6 35.7,1.8 35.8,3.7L37,16.7C37.1,17.6 36.6,18.4 35.8,19C35.2,19.4 34.3,19.7 33.3,19.8C32.1,19.9 31,20.1 29.9,20.4L29.1,20.5ZM23.6,3.4L30.2,18.2C31.2,18 32.2,17.8 33.2,17.8C33.8,17.8 34.3,17.6 34.7,17.4C34.9,17.3 35,17.1 35,17L33.8,3.7C33.6,3.4 32,2.5 29.7,2.5L29.1,2.5C27.2,2.6 25.4,2.9 23.6,3.4Z" style="fill-rule:nonzero;"/>
        </g>
        <g transform="matrix(0,-1,1,0,-0.111113,47.988887)">
            <path d="M42.7,15.8C41.3,15.8 39.6,15.6 37.7,15.5C37,15.4 36.4,15.4 35.7,15.3L35.9,13.3C36.6,13.4 37.2,13.4 37.9,13.5C40.8,13.8 45.1,14.2 45.5,13.2C45.5,13.1 45.5,12.8 45.1,12.2C43.6,10.1 39.5,7.6 34.9,7.1L35.1,5.1C40.6,5.6 45.5,8.8 47,11.5C47.7,12.7 47.5,13.5 47.3,14C46.7,15.4 45,15.8 42.7,15.8Z" style="fill-rule:nonzero;"/>
        </g>
    </g>
</svg>
