<?xml version="1.0" encoding="UTF-8" standalone="no"?>
<!DOCTYPE svg PUBLIC "-//W3C//DTD SVG 1.1//EN" "http://www.w3.org/Graphics/SVG/1.1/DTD/svg11.dtd">
<svg width="100%" height="100%" viewBox="0 0 24 24" version="1.1" xmlns="http://www.w3.org/2000/svg" xmlns:xlink="http://www.w3.org/1999/xlink" xml:space="preserve" xmlns:serif="http://www.serif.com/" style="fill-rule:evenodd;clip-rule:evenodd;stroke-linecap:round;stroke-linejoin:round;">
    <path d="M20,6.5L20,14.5C20,15.328 19.328,16 18.5,16L5.5,16C4.672,16 4,15.328 4,14.5L4,6.5C4,5.672 4.672,5 5.5,5L18.5,5C19.328,5 20,5.672 20,6.5Z" style="fill:none;stroke:black;stroke-width:1.8px;"/>
    <path d="M9,20L15,20M12,16L12,20" style="fill:none;fill-rule:nonzero;stroke:black;stroke-width:1.8px;"/>
    <g transform="matrix(1,0,0,1,0,-1.409174)">
        <path d="M7,12L9,12L10.4,9L12.6,15L14,12L17,12" style="fill:none;fill-rule:nonzero;stroke:black;stroke-width:1.8px;"/>
    </g>
</svg>
