<?xml version="1.0" encoding="UTF-8"?>
<svg xmlns="http://www.w3.org/2000/svg" viewBox="0 0 24 24"
  fill="none" stroke="currentColor" stroke-width="1.8"
  stroke-linecap="round" stroke-linejoin="round" aria-hidden="true">
  <path d="M7.1 5.1c3.1-1.7 7.6-1.2 9.7 1.2 2 2.3 2.2 6.6.3 9.7-1.8 2.9-6 4-9.1 2.3-3.3-1.8-4.4-6-2.6-9.4.5-1 1-2.8 1.7-3.8Z"/>
  <path d="m7.1 5.1 3.6 4.4L5.4 8.9m5.3.6 6.1-3.2m-6.1 3.2.8 5.3L8 18.3m3.5-3.5 5.6 1.2m-5.6-1.2 5.8-5.1" opacity=".55"/>
  <circle cx="10.7" cy="9.5" r=".75" fill="currentColor" stroke="none"/>
  <circle cx="11.5" cy="14.8" r=".75" fill="currentColor" stroke="none"/>
</svg>
