<svg xmlns="http://www.w3.org/2000/svg" viewBox="0 0 1448 1086">
  <g fill="#fff">
    <path transform="matrix(3.386221 0 0 3.39184 -345.669893 -656.520334)" d="M259.232 417.721c.022 12.163-7.371 15.672-14.356 21.006-20.391 15.572-35.066 25.79-52.183 38.209-3.592 2.606-7.177 5.004-9.777 12.987V312.916c-.002-2.944.821-5.893 4.031-8.589 2.234-1.876 6.562-4.402 14.779-1.334 4.04 1.509 9.596 4.863 14.625 8.562 13.532 9.953 39.798 35.564 42.979 38.673l-.098 67.493Z"/>
    <path transform="matrix(3.386221 0 0 3.39184 -345.669893 -656.520334)" d="M388.472 455.44c-8.103 3.233-18.394.686-25.419-3.97-6.699-3.851-25.915-25.366-48.294-49.038-24.143-25.537-51.823-53.712-67.326-68.583-29.146-27.959-51.088-43.271-62.152-32.234 1.253-4.91 3.097-7.771 6.838-11.712 9.839-10.367 40.559-26.938 41.112-27.259 19.485-11.318 35.894-2.272 46.79 7.235 66.197 57.809 117.446 123.535 138.877 142.629 14.402 14.041 22.961 9.708 25.638 8.152-2.706 7.389-19.763 18.524-56.064 34.8Z"/>
    <path transform="matrix(3.386221 0 0 3.39184 -345.669893 -656.520334)" d="M367.486 352.217a2.39 2.39 0 0 1-.63-1.652c.064-8.441.215-21.121.028-35.069-.152-11.363-.374-25.542 1.611-36 1.069-5.63 4.591-12.844 10.154-18.912 8.122-8.86 20.302-12.934 33.626-19.828 14.076-7.283 25.332-14.633 30.939-19.723 1.671-1.517 3.157-3.049 3.716-3.355 2.305-1.265 1.915 1.722 1.895 3.695-.244 24.098-.829 132.015-.82 186.514 0 2.973.159 7.808-4.795 10.488-11.532 6.236-25.998-11.646-42.479-29.443-13.42-14.492-27.141-29.951-33.245-36.715Z"/>
  </g>
</svg>
