<svg xmlns="http://www.w3.org/2000/svg" viewBox="0 0 24 24"
  fill="none" stroke="currentColor" stroke-width="1.65"
  stroke-linecap="round" stroke-linejoin="round" aria-hidden="true">

  <rect x="5.5" y="5.5" width="13" height="13" rx="2"/>
  <path d="M9 3.5v2M12 3.5v2M15 3.5v2M9 18.5v2M12 18.5v2M15 18.5v2"/>
  <path d="M3.5 9h2M3.5 12h2M3.5 15h2M18.5 9h2M18.5 12h2M18.5 15h2"/>
  <circle cx="9" cy="10" r="1"/>
  <circle cx="15" cy="9" r="1"/>
  <circle cx="13.5" cy="15" r="1"/>
  <path d="M10 9.8l4-.6M9.6 10.8l3.3 3.4M14.7 10l-.9 4"/>

</svg>
